<svg width="30" height="22" viewBox="0 0 30 22" fill="none" xmlns="http://www.w3.org/2000/svg">
<path d="M28.6048 9.33898C28.9669 9.79452 29.1673 10.3864 29.1673 11C29.1673 11.6137 28.9669 12.2055 28.6048 12.6611C26.312 15.4625 21.093 20.9167 15.0007 20.9167C8.90831 20.9167 3.6894 15.4625 1.39658 12.6611C1.03444 12.2055 0.833984 11.6137 0.833984 11C0.833984 10.3864 1.03444 9.79452 1.39658 9.33898C3.6894 6.53751 8.90831 1.08333 15.0007 1.08333C21.093 1.08333 26.312 6.53751 28.6048 9.33898Z" stroke="#98989A" stroke-width="1.5" stroke-linecap="round" stroke-linejoin="round"/>
<path d="M15.0014 15.4072C17.4134 15.4072 19.3687 13.4339 19.3687 10.9998C19.3687 8.5657 17.4134 6.59246 15.0014 6.59246C12.5894 6.59246 10.6341 8.5657 10.6341 10.9998C10.6341 13.4339 12.5894 15.4072 15.0014 15.4072Z" stroke="#98989A" stroke-width="1.5" stroke-linecap="round" stroke-linejoin="round"/>
</svg>
